<mxfile host="Electron" modified="2023-12-23T14:50:39.758Z" agent="Mozilla/5.0 (Windows NT 10.0; Win64; x64) AppleWebKit/537.36 (KHTML, like Gecko) draw.io/22.1.2 Chrome/114.0.5735.289 Electron/25.9.4 Safari/537.36" etag="VnerLVTEpFZK0JucIvVl" version="22.1.2" type="device">
  <diagram name="Sida-1" id="ki3sTq9t21kcXtdD18XC">
    <mxGraphModel dx="1221" dy="823" grid="1" gridSize="10" guides="1" tooltips="1" connect="1" arrows="1" fold="1" page="1" pageScale="1" pageWidth="827" pageHeight="1169" math="0" shadow="0">
      <root>
        <mxCell id="0" />
        <mxCell id="1" parent="0" />
        <mxCell id="UWtLDS1Xiag3bLHQ2QYY-263" value="" style="rounded=0;whiteSpace=wrap;html=1;fillColor=#F8B572;gradientColor=#F70202;strokeColor=#b85450;" parent="1" vertex="1">
          <mxGeometry x="386.5" y="312" width="40" height="40" as="geometry" />
        </mxCell>
        <mxCell id="UWtLDS1Xiag3bLHQ2QYY-262" value="" style="rounded=0;whiteSpace=wrap;html=1;fillColor=#30DAE6;strokeColor=#996185;gradientColor=#24D55F;" parent="1" vertex="1">
          <mxGeometry x="505.5" y="392" width="40" height="40" as="geometry" />
        </mxCell>
        <mxCell id="UWtLDS1Xiag3bLHQ2QYY-261" value="" style="rounded=0;whiteSpace=wrap;html=1;fillColor=#30DAE6;strokeColor=#996185;gradientColor=#24D55F;" parent="1" vertex="1">
          <mxGeometry x="585.5" y="392" width="40" height="40" as="geometry" />
        </mxCell>
        <mxCell id="UWtLDS1Xiag3bLHQ2QYY-259" value="" style="rounded=0;whiteSpace=wrap;html=1;fillColor=#30DAE6;strokeColor=#996185;gradientColor=#24D55F;" parent="1" vertex="1">
          <mxGeometry x="905.5" y="392" width="40" height="40" as="geometry" />
        </mxCell>
        <mxCell id="UWtLDS1Xiag3bLHQ2QYY-104" value="" style="rounded=0;whiteSpace=wrap;html=1;fillColor=#dae8fc;gradientColor=#7ea6e0;strokeColor=#6c8ebf;" parent="1" vertex="1">
          <mxGeometry x="600" y="160" width="40" height="40" as="geometry" />
        </mxCell>
        <mxCell id="UWtLDS1Xiag3bLHQ2QYY-107" value="" style="rounded=0;whiteSpace=wrap;html=1;fillColor=#dae8fc;gradientColor=#7ea6e0;strokeColor=#6c8ebf;" parent="1" vertex="1">
          <mxGeometry x="680" y="161" width="40" height="40" as="geometry" />
        </mxCell>
        <mxCell id="UWtLDS1Xiag3bLHQ2QYY-106" value="" style="rounded=0;whiteSpace=wrap;html=1;fillColor=#ffcd28;gradientColor=#ffa500;strokeColor=#d79b00;" parent="1" vertex="1">
          <mxGeometry x="640" y="121" width="40" height="40" as="geometry" />
        </mxCell>
        <mxCell id="UWtLDS1Xiag3bLHQ2QYY-105" value="" style="rounded=0;whiteSpace=wrap;html=1;fillColor=#ffcd28;gradientColor=#ffa500;strokeColor=#d79b00;" parent="1" vertex="1">
          <mxGeometry x="560" y="120" width="40" height="40" as="geometry" />
        </mxCell>
        <mxCell id="UWtLDS1Xiag3bLHQ2QYY-103" value="" style="rounded=0;whiteSpace=wrap;html=1;fillColor=#dae8fc;gradientColor=#7ea6e0;strokeColor=#6c8ebf;" parent="1" vertex="1">
          <mxGeometry x="280" y="161" width="40" height="40" as="geometry" />
        </mxCell>
        <mxCell id="UWtLDS1Xiag3bLHQ2QYY-98" value="" style="rounded=0;whiteSpace=wrap;html=1;fillColor=#dae8fc;gradientColor=#7ea6e0;strokeColor=#6c8ebf;" parent="1" vertex="1">
          <mxGeometry x="200" y="161" width="40" height="40" as="geometry" />
        </mxCell>
        <mxCell id="UWtLDS1Xiag3bLHQ2QYY-96" value="" style="rounded=0;whiteSpace=wrap;html=1;fillColor=#ffcd28;gradientColor=#ffa500;strokeColor=#d79b00;" parent="1" vertex="1">
          <mxGeometry x="400" y="120" width="40" height="40" as="geometry" />
        </mxCell>
        <mxCell id="UWtLDS1Xiag3bLHQ2QYY-97" value="" style="rounded=0;whiteSpace=wrap;html=1;fillColor=#ffcd28;gradientColor=#ffa500;strokeColor=#d79b00;" parent="1" vertex="1">
          <mxGeometry x="320" y="120" width="40" height="40" as="geometry" />
        </mxCell>
        <mxCell id="UWtLDS1Xiag3bLHQ2QYY-3" value="" style="rounded=0;whiteSpace=wrap;html=1;fillColor=#ffcd28;gradientColor=#ffa500;strokeColor=#d79b00;" parent="1" vertex="1">
          <mxGeometry x="121" y="121" width="40" height="40" as="geometry" />
        </mxCell>
        <mxCell id="UWtLDS1Xiag3bLHQ2QYY-6" value="" style="rounded=0;whiteSpace=wrap;html=1;fillColor=#d5e8d4;gradientColor=#97d077;strokeColor=#82b366;" parent="1" vertex="1">
          <mxGeometry x="81" y="80" width="40" height="40" as="geometry" />
        </mxCell>
        <mxCell id="UWtLDS1Xiag3bLHQ2QYY-8" value="" style="endArrow=none;html=1;rounded=0;" parent="1" edge="1">
          <mxGeometry width="50" height="50" relative="1" as="geometry">
            <mxPoint x="80" y="250" as="sourcePoint" />
            <mxPoint x="780" y="250" as="targetPoint" />
          </mxGeometry>
        </mxCell>
        <mxCell id="UWtLDS1Xiag3bLHQ2QYY-9" value="" style="endArrow=none;html=1;rounded=0;exitX=0.5;exitY=0;exitDx=0;exitDy=0;" parent="1" source="UWtLDS1Xiag3bLHQ2QYY-36" edge="1">
          <mxGeometry width="50" height="50" relative="1" as="geometry">
            <mxPoint x="80" y="320" as="sourcePoint" />
            <mxPoint x="80" y="80" as="targetPoint" />
          </mxGeometry>
        </mxCell>
        <mxCell id="UWtLDS1Xiag3bLHQ2QYY-12" value="" style="endArrow=classic;html=1;rounded=0;fillColor=#e51400;strokeColor=#B20000;" parent="1" edge="1">
          <mxGeometry width="50" height="50" relative="1" as="geometry">
            <mxPoint x="80" y="160" as="sourcePoint" />
            <mxPoint x="80" y="130" as="targetPoint" />
          </mxGeometry>
        </mxCell>
        <mxCell id="UWtLDS1Xiag3bLHQ2QYY-13" value="" style="endArrow=classic;html=1;rounded=0;fillColor=#e51400;strokeColor=#B20000;" parent="1" edge="1">
          <mxGeometry width="50" height="50" relative="1" as="geometry">
            <mxPoint x="80" y="120" as="sourcePoint" />
            <mxPoint x="80" y="90" as="targetPoint" />
          </mxGeometry>
        </mxCell>
        <mxCell id="UWtLDS1Xiag3bLHQ2QYY-14" value="Task 1" style="text;html=1;strokeColor=none;fillColor=none;align=center;verticalAlign=middle;whiteSpace=wrap;rounded=0;" parent="1" vertex="1">
          <mxGeometry x="20" y="90" width="60" height="30" as="geometry" />
        </mxCell>
        <mxCell id="UWtLDS1Xiag3bLHQ2QYY-15" value="Task IA" style="text;html=1;strokeColor=none;fillColor=none;align=center;verticalAlign=middle;whiteSpace=wrap;rounded=0;" parent="1" vertex="1">
          <mxGeometry x="20" y="126" width="60" height="30" as="geometry" />
        </mxCell>
        <mxCell id="UWtLDS1Xiag3bLHQ2QYY-19" value="" style="endArrow=none;html=1;rounded=0;" parent="1" edge="1">
          <mxGeometry width="50" height="50" relative="1" as="geometry">
            <mxPoint x="280" y="270" as="sourcePoint" />
            <mxPoint x="280" y="250" as="targetPoint" />
          </mxGeometry>
        </mxCell>
        <mxCell id="UWtLDS1Xiag3bLHQ2QYY-20" value="" style="endArrow=none;html=1;rounded=0;" parent="1" edge="1">
          <mxGeometry width="50" height="50" relative="1" as="geometry">
            <mxPoint x="480" y="270" as="sourcePoint" />
            <mxPoint x="480" y="250" as="targetPoint" />
          </mxGeometry>
        </mxCell>
        <mxCell id="UWtLDS1Xiag3bLHQ2QYY-21" value="" style="endArrow=none;html=1;rounded=0;" parent="1" edge="1">
          <mxGeometry width="50" height="50" relative="1" as="geometry">
            <mxPoint x="680" y="270" as="sourcePoint" />
            <mxPoint x="680" y="250" as="targetPoint" />
          </mxGeometry>
        </mxCell>
        <mxCell id="UWtLDS1Xiag3bLHQ2QYY-22" value="" style="endArrow=none;html=1;rounded=0;" parent="1" edge="1">
          <mxGeometry width="50" height="50" relative="1" as="geometry">
            <mxPoint x="120" y="260" as="sourcePoint" />
            <mxPoint x="119.67000000000002" y="250" as="targetPoint" />
          </mxGeometry>
        </mxCell>
        <mxCell id="UWtLDS1Xiag3bLHQ2QYY-23" value="" style="endArrow=none;html=1;rounded=0;" parent="1" edge="1">
          <mxGeometry width="50" height="50" relative="1" as="geometry">
            <mxPoint x="160" y="260" as="sourcePoint" />
            <mxPoint x="160" y="250" as="targetPoint" />
          </mxGeometry>
        </mxCell>
        <mxCell id="UWtLDS1Xiag3bLHQ2QYY-24" value="" style="endArrow=none;html=1;rounded=0;" parent="1" edge="1">
          <mxGeometry width="50" height="50" relative="1" as="geometry">
            <mxPoint x="200" y="260" as="sourcePoint" />
            <mxPoint x="200" y="250" as="targetPoint" />
          </mxGeometry>
        </mxCell>
        <mxCell id="UWtLDS1Xiag3bLHQ2QYY-25" value="" style="endArrow=none;html=1;rounded=0;" parent="1" edge="1">
          <mxGeometry width="50" height="50" relative="1" as="geometry">
            <mxPoint x="240" y="260" as="sourcePoint" />
            <mxPoint x="240" y="250" as="targetPoint" />
          </mxGeometry>
        </mxCell>
        <mxCell id="UWtLDS1Xiag3bLHQ2QYY-26" value="" style="endArrow=none;html=1;rounded=0;" parent="1" edge="1">
          <mxGeometry width="50" height="50" relative="1" as="geometry">
            <mxPoint x="320" y="260" as="sourcePoint" />
            <mxPoint x="320" y="250" as="targetPoint" />
          </mxGeometry>
        </mxCell>
        <mxCell id="UWtLDS1Xiag3bLHQ2QYY-27" value="" style="endArrow=none;html=1;rounded=0;" parent="1" edge="1">
          <mxGeometry width="50" height="50" relative="1" as="geometry">
            <mxPoint x="360" y="260" as="sourcePoint" />
            <mxPoint x="360" y="250" as="targetPoint" />
          </mxGeometry>
        </mxCell>
        <mxCell id="UWtLDS1Xiag3bLHQ2QYY-28" value="" style="endArrow=none;html=1;rounded=0;" parent="1" edge="1">
          <mxGeometry width="50" height="50" relative="1" as="geometry">
            <mxPoint x="400" y="260" as="sourcePoint" />
            <mxPoint x="400" y="250" as="targetPoint" />
          </mxGeometry>
        </mxCell>
        <mxCell id="UWtLDS1Xiag3bLHQ2QYY-29" value="" style="endArrow=none;html=1;rounded=0;" parent="1" edge="1">
          <mxGeometry width="50" height="50" relative="1" as="geometry">
            <mxPoint x="440" y="260" as="sourcePoint" />
            <mxPoint x="440" y="250" as="targetPoint" />
          </mxGeometry>
        </mxCell>
        <mxCell id="UWtLDS1Xiag3bLHQ2QYY-30" value="" style="endArrow=none;html=1;rounded=0;" parent="1" edge="1">
          <mxGeometry width="50" height="50" relative="1" as="geometry">
            <mxPoint x="520" y="260" as="sourcePoint" />
            <mxPoint x="520" y="250" as="targetPoint" />
          </mxGeometry>
        </mxCell>
        <mxCell id="UWtLDS1Xiag3bLHQ2QYY-31" value="" style="endArrow=none;html=1;rounded=0;" parent="1" edge="1">
          <mxGeometry width="50" height="50" relative="1" as="geometry">
            <mxPoint x="560" y="260" as="sourcePoint" />
            <mxPoint x="560" y="250" as="targetPoint" />
          </mxGeometry>
        </mxCell>
        <mxCell id="UWtLDS1Xiag3bLHQ2QYY-32" value="" style="endArrow=none;html=1;rounded=0;" parent="1" edge="1">
          <mxGeometry width="50" height="50" relative="1" as="geometry">
            <mxPoint x="600" y="260" as="sourcePoint" />
            <mxPoint x="600" y="250" as="targetPoint" />
          </mxGeometry>
        </mxCell>
        <mxCell id="UWtLDS1Xiag3bLHQ2QYY-33" value="" style="endArrow=none;html=1;rounded=0;" parent="1" edge="1">
          <mxGeometry width="50" height="50" relative="1" as="geometry">
            <mxPoint x="640" y="260" as="sourcePoint" />
            <mxPoint x="640" y="250" as="targetPoint" />
          </mxGeometry>
        </mxCell>
        <mxCell id="UWtLDS1Xiag3bLHQ2QYY-34" value="" style="endArrow=none;html=1;rounded=0;" parent="1" edge="1">
          <mxGeometry width="50" height="50" relative="1" as="geometry">
            <mxPoint x="720" y="260" as="sourcePoint" />
            <mxPoint x="720" y="250" as="targetPoint" />
          </mxGeometry>
        </mxCell>
        <mxCell id="UWtLDS1Xiag3bLHQ2QYY-35" value="" style="endArrow=none;html=1;rounded=0;" parent="1" edge="1">
          <mxGeometry width="50" height="50" relative="1" as="geometry">
            <mxPoint x="760" y="260" as="sourcePoint" />
            <mxPoint x="760" y="250" as="targetPoint" />
          </mxGeometry>
        </mxCell>
        <mxCell id="UWtLDS1Xiag3bLHQ2QYY-36" value="&lt;font style=&quot;font-size: 8px;&quot;&gt;t = 0&lt;/font&gt;" style="text;html=1;strokeColor=none;fillColor=none;align=center;verticalAlign=middle;whiteSpace=wrap;rounded=0;" parent="1" vertex="1">
          <mxGeometry x="60" y="270" width="40" height="20" as="geometry" />
        </mxCell>
        <mxCell id="UWtLDS1Xiag3bLHQ2QYY-37" value="&lt;font style=&quot;font-size: 8px;&quot;&gt;1&lt;/font&gt;" style="text;html=1;strokeColor=none;fillColor=none;align=center;verticalAlign=middle;whiteSpace=wrap;rounded=0;" parent="1" vertex="1">
          <mxGeometry x="110" y="270" width="20" height="20" as="geometry" />
        </mxCell>
        <mxCell id="UWtLDS1Xiag3bLHQ2QYY-38" value="&lt;font style=&quot;font-size: 8px;&quot;&gt;2&lt;/font&gt;" style="text;html=1;strokeColor=none;fillColor=none;align=center;verticalAlign=middle;whiteSpace=wrap;rounded=0;" parent="1" vertex="1">
          <mxGeometry x="150" y="270" width="20" height="20" as="geometry" />
        </mxCell>
        <mxCell id="UWtLDS1Xiag3bLHQ2QYY-39" value="&lt;font style=&quot;font-size: 8px;&quot;&gt;3&lt;/font&gt;" style="text;html=1;strokeColor=none;fillColor=none;align=center;verticalAlign=middle;whiteSpace=wrap;rounded=0;" parent="1" vertex="1">
          <mxGeometry x="190" y="270" width="20" height="20" as="geometry" />
        </mxCell>
        <mxCell id="UWtLDS1Xiag3bLHQ2QYY-40" value="&lt;font style=&quot;font-size: 8px;&quot;&gt;4&lt;/font&gt;" style="text;html=1;strokeColor=none;fillColor=none;align=center;verticalAlign=middle;whiteSpace=wrap;rounded=0;" parent="1" vertex="1">
          <mxGeometry x="230" y="270" width="20" height="20" as="geometry" />
        </mxCell>
        <mxCell id="UWtLDS1Xiag3bLHQ2QYY-41" value="&lt;font style=&quot;font-size: 8px;&quot;&gt;5&lt;/font&gt;" style="text;html=1;strokeColor=none;fillColor=none;align=center;verticalAlign=middle;whiteSpace=wrap;rounded=0;" parent="1" vertex="1">
          <mxGeometry x="270" y="270" width="20" height="20" as="geometry" />
        </mxCell>
        <mxCell id="UWtLDS1Xiag3bLHQ2QYY-42" value="&lt;span style=&quot;font-size: 8px;&quot;&gt;6&lt;/span&gt;" style="text;html=1;strokeColor=none;fillColor=none;align=center;verticalAlign=middle;whiteSpace=wrap;rounded=0;" parent="1" vertex="1">
          <mxGeometry x="310" y="270" width="20" height="20" as="geometry" />
        </mxCell>
        <mxCell id="UWtLDS1Xiag3bLHQ2QYY-43" value="&lt;span style=&quot;font-size: 8px;&quot;&gt;7&lt;/span&gt;" style="text;html=1;strokeColor=none;fillColor=none;align=center;verticalAlign=middle;whiteSpace=wrap;rounded=0;" parent="1" vertex="1">
          <mxGeometry x="350" y="270" width="20" height="20" as="geometry" />
        </mxCell>
        <mxCell id="UWtLDS1Xiag3bLHQ2QYY-44" value="&lt;font style=&quot;font-size: 8px;&quot;&gt;8&lt;/font&gt;" style="text;html=1;strokeColor=none;fillColor=none;align=center;verticalAlign=middle;whiteSpace=wrap;rounded=0;" parent="1" vertex="1">
          <mxGeometry x="390" y="270" width="20" height="20" as="geometry" />
        </mxCell>
        <mxCell id="UWtLDS1Xiag3bLHQ2QYY-45" value="&lt;font style=&quot;font-size: 8px;&quot;&gt;9&lt;/font&gt;" style="text;html=1;strokeColor=none;fillColor=none;align=center;verticalAlign=middle;whiteSpace=wrap;rounded=0;" parent="1" vertex="1">
          <mxGeometry x="430" y="270" width="20" height="20" as="geometry" />
        </mxCell>
        <mxCell id="UWtLDS1Xiag3bLHQ2QYY-46" value="&lt;font style=&quot;font-size: 8px;&quot;&gt;10&lt;/font&gt;" style="text;html=1;strokeColor=none;fillColor=none;align=center;verticalAlign=middle;whiteSpace=wrap;rounded=0;" parent="1" vertex="1">
          <mxGeometry x="470" y="270" width="20" height="20" as="geometry" />
        </mxCell>
        <mxCell id="UWtLDS1Xiag3bLHQ2QYY-47" value="&lt;font style=&quot;font-size: 8px;&quot;&gt;11&lt;/font&gt;" style="text;html=1;strokeColor=none;fillColor=none;align=center;verticalAlign=middle;whiteSpace=wrap;rounded=0;" parent="1" vertex="1">
          <mxGeometry x="510" y="270" width="20" height="20" as="geometry" />
        </mxCell>
        <mxCell id="UWtLDS1Xiag3bLHQ2QYY-48" value="&lt;font style=&quot;font-size: 8px;&quot;&gt;12&lt;/font&gt;" style="text;html=1;strokeColor=none;fillColor=none;align=center;verticalAlign=middle;whiteSpace=wrap;rounded=0;" parent="1" vertex="1">
          <mxGeometry x="550" y="270" width="20" height="20" as="geometry" />
        </mxCell>
        <mxCell id="UWtLDS1Xiag3bLHQ2QYY-49" value="&lt;font style=&quot;font-size: 8px;&quot;&gt;13&lt;/font&gt;" style="text;html=1;strokeColor=none;fillColor=none;align=center;verticalAlign=middle;whiteSpace=wrap;rounded=0;" parent="1" vertex="1">
          <mxGeometry x="590" y="270" width="20" height="20" as="geometry" />
        </mxCell>
        <mxCell id="UWtLDS1Xiag3bLHQ2QYY-50" value="&lt;font style=&quot;font-size: 8px;&quot;&gt;14&lt;/font&gt;" style="text;html=1;strokeColor=none;fillColor=none;align=center;verticalAlign=middle;whiteSpace=wrap;rounded=0;" parent="1" vertex="1">
          <mxGeometry x="630" y="270" width="20" height="20" as="geometry" />
        </mxCell>
        <mxCell id="UWtLDS1Xiag3bLHQ2QYY-51" value="&lt;font style=&quot;font-size: 8px;&quot;&gt;15&lt;/font&gt;" style="text;html=1;strokeColor=none;fillColor=none;align=center;verticalAlign=middle;whiteSpace=wrap;rounded=0;" parent="1" vertex="1">
          <mxGeometry x="670" y="270" width="20" height="20" as="geometry" />
        </mxCell>
        <mxCell id="UWtLDS1Xiag3bLHQ2QYY-52" value="&lt;font style=&quot;font-size: 8px;&quot;&gt;16&lt;/font&gt;" style="text;html=1;strokeColor=none;fillColor=none;align=center;verticalAlign=middle;whiteSpace=wrap;rounded=0;" parent="1" vertex="1">
          <mxGeometry x="710" y="270" width="20" height="20" as="geometry" />
        </mxCell>
        <mxCell id="UWtLDS1Xiag3bLHQ2QYY-53" value="&lt;font style=&quot;font-size: 8px;&quot;&gt;17&lt;/font&gt;" style="text;html=1;strokeColor=none;fillColor=none;align=center;verticalAlign=middle;whiteSpace=wrap;rounded=0;" parent="1" vertex="1">
          <mxGeometry x="750" y="270" width="20" height="20" as="geometry" />
        </mxCell>
        <mxCell id="UWtLDS1Xiag3bLHQ2QYY-54" value="" style="rounded=0;whiteSpace=wrap;html=1;fillColor=#647687;strokeColor=#314354;fontColor=#ffffff;" parent="1" vertex="1">
          <mxGeometry x="240" y="201" width="65" height="40" as="geometry" />
        </mxCell>
        <mxCell id="UWtLDS1Xiag3bLHQ2QYY-55" value="Msg1" style="text;html=1;strokeColor=none;fillColor=none;align=center;verticalAlign=middle;whiteSpace=wrap;rounded=0;" parent="1" vertex="1">
          <mxGeometry x="21" y="201" width="60" height="30" as="geometry" />
        </mxCell>
        <mxCell id="UWtLDS1Xiag3bLHQ2QYY-56" value="" style="endArrow=classic;html=1;rounded=0;exitX=0;exitY=0.5;exitDx=0;exitDy=0;" parent="1" source="UWtLDS1Xiag3bLHQ2QYY-57" edge="1">
          <mxGeometry width="50" height="50" relative="1" as="geometry">
            <mxPoint x="182" y="58" as="sourcePoint" />
            <mxPoint x="105" y="70" as="targetPoint" />
          </mxGeometry>
        </mxCell>
        <mxCell id="UWtLDS1Xiag3bLHQ2QYY-57" value="Msg1 arrives here" style="text;html=1;strokeColor=default;fillColor=none;align=center;verticalAlign=middle;whiteSpace=wrap;rounded=0;" parent="1" vertex="1">
          <mxGeometry x="142" y="25" width="68" height="37" as="geometry" />
        </mxCell>
        <mxCell id="UWtLDS1Xiag3bLHQ2QYY-58" value="" style="rounded=0;whiteSpace=wrap;html=1;fillColor=#ffcd28;gradientColor=#ffa500;strokeColor=#d79b00;" parent="1" vertex="1">
          <mxGeometry x="161" y="121" width="40" height="40" as="geometry" />
        </mxCell>
        <mxCell id="UWtLDS1Xiag3bLHQ2QYY-59" value="" style="endArrow=classic;html=1;rounded=0;fillColor=#e51400;strokeColor=#B20000;strokeWidth=1;" parent="1" edge="1">
          <mxGeometry width="50" height="50" relative="1" as="geometry">
            <mxPoint x="159.66" y="160" as="sourcePoint" />
            <mxPoint x="159.9" y="130" as="targetPoint" />
          </mxGeometry>
        </mxCell>
        <mxCell id="UWtLDS1Xiag3bLHQ2QYY-60" value="" style="rounded=0;whiteSpace=wrap;html=1;fillColor=#ffcd28;gradientColor=#ffa500;strokeColor=#d79b00;" parent="1" vertex="1">
          <mxGeometry x="240" y="120" width="40" height="40" as="geometry" />
        </mxCell>
        <mxCell id="UWtLDS1Xiag3bLHQ2QYY-61" value="" style="rounded=0;whiteSpace=wrap;html=1;fillColor=#ffcd28;gradientColor=#ffa500;strokeColor=#d79b00;" parent="1" vertex="1">
          <mxGeometry x="520" y="120" width="40" height="40" as="geometry" />
        </mxCell>
        <mxCell id="UWtLDS1Xiag3bLHQ2QYY-62" value="" style="rounded=0;whiteSpace=wrap;html=1;fillColor=#d5e8d4;gradientColor=#97d077;strokeColor=#82b366;" parent="1" vertex="1">
          <mxGeometry x="480" y="80" width="40" height="40" as="geometry" />
        </mxCell>
        <mxCell id="UWtLDS1Xiag3bLHQ2QYY-67" value="" style="endArrow=classic;html=1;rounded=0;fillColor=#e51400;strokeColor=#B20000;strokeWidth=1;" parent="1" edge="1">
          <mxGeometry width="50" height="50" relative="1" as="geometry">
            <mxPoint x="480" y="121" as="sourcePoint" />
            <mxPoint x="480" y="91" as="targetPoint" />
          </mxGeometry>
        </mxCell>
        <mxCell id="UWtLDS1Xiag3bLHQ2QYY-68" value="" style="endArrow=classic;html=1;rounded=0;fillColor=#e51400;strokeColor=#B20000;strokeWidth=1;" parent="1" edge="1">
          <mxGeometry width="50" height="50" relative="1" as="geometry">
            <mxPoint x="479.30999999999995" y="160" as="sourcePoint" />
            <mxPoint x="479.30999999999995" y="130" as="targetPoint" />
          </mxGeometry>
        </mxCell>
        <mxCell id="UWtLDS1Xiag3bLHQ2QYY-69" value="" style="endArrow=classic;html=1;rounded=0;fillColor=#e51400;strokeColor=#B20000;strokeWidth=1;" parent="1" edge="1">
          <mxGeometry width="50" height="50" relative="1" as="geometry">
            <mxPoint x="639.66" y="160" as="sourcePoint" />
            <mxPoint x="639.66" y="130" as="targetPoint" />
          </mxGeometry>
        </mxCell>
        <mxCell id="UWtLDS1Xiag3bLHQ2QYY-71" value="" style="endArrow=none;html=1;rounded=0;" parent="1" edge="1">
          <mxGeometry width="50" height="50" relative="1" as="geometry">
            <mxPoint x="1025.5" y="536" as="sourcePoint" />
            <mxPoint x="1025.5" y="504" as="targetPoint" />
            <Array as="points" />
          </mxGeometry>
        </mxCell>
        <mxCell id="UWtLDS1Xiag3bLHQ2QYY-72" value="" style="endArrow=none;html=1;rounded=0;" parent="1" edge="1">
          <mxGeometry width="50" height="50" relative="1" as="geometry">
            <mxPoint x="81" y="535" as="sourcePoint" />
            <mxPoint x="81" y="505" as="targetPoint" />
          </mxGeometry>
        </mxCell>
        <mxCell id="UWtLDS1Xiag3bLHQ2QYY-74" value="" style="rounded=0;whiteSpace=wrap;html=1;fillColor=#647687;strokeColor=#314354;fontColor=#ffffff;" parent="1" vertex="1">
          <mxGeometry x="640" y="201" width="65" height="40" as="geometry" />
        </mxCell>
        <mxCell id="UWtLDS1Xiag3bLHQ2QYY-75" value="" style="endArrow=classic;html=1;rounded=0;exitX=0;exitY=0.5;exitDx=0;exitDy=0;" parent="1" source="UWtLDS1Xiag3bLHQ2QYY-76" edge="1">
          <mxGeometry width="50" height="50" relative="1" as="geometry">
            <mxPoint x="401" y="520" as="sourcePoint" />
            <mxPoint x="81" y="520" as="targetPoint" />
          </mxGeometry>
        </mxCell>
        <mxCell id="UWtLDS1Xiag3bLHQ2QYY-76" value="&lt;font style=&quot;font-size: 18px;&quot;&gt;Age Delay =&amp;nbsp; 7.62 + 16 = 23.62ms&lt;/font&gt;" style="text;html=1;strokeColor=none;fillColor=none;align=center;verticalAlign=middle;whiteSpace=wrap;rounded=0;" parent="1" vertex="1">
          <mxGeometry x="390" y="500" width="290.5" height="40" as="geometry" />
        </mxCell>
        <mxCell id="UWtLDS1Xiag3bLHQ2QYY-77" value="" style="endArrow=classic;html=1;rounded=0;exitX=1;exitY=0.5;exitDx=0;exitDy=0;" parent="1" source="UWtLDS1Xiag3bLHQ2QYY-76" edge="1">
          <mxGeometry width="50" height="50" relative="1" as="geometry">
            <mxPoint x="419.5" y="520" as="sourcePoint" />
            <mxPoint x="1020" y="520" as="targetPoint" />
          </mxGeometry>
        </mxCell>
        <mxCell id="UWtLDS1Xiag3bLHQ2QYY-89" value="" style="endArrow=classic;html=1;rounded=0;fillColor=#e51400;strokeColor=#B20000;strokeWidth=1;" parent="1" edge="1">
          <mxGeometry width="50" height="50" relative="1" as="geometry">
            <mxPoint x="239.99999999999994" y="161" as="sourcePoint" />
            <mxPoint x="239.99999999999994" y="131" as="targetPoint" />
          </mxGeometry>
        </mxCell>
        <mxCell id="UWtLDS1Xiag3bLHQ2QYY-90" value="" style="endArrow=classic;html=1;rounded=0;fillColor=#e51400;strokeColor=#B20000;strokeWidth=1;" parent="1" edge="1">
          <mxGeometry width="50" height="50" relative="1" as="geometry">
            <mxPoint x="319.65999999999997" y="160" as="sourcePoint" />
            <mxPoint x="319.65999999999997" y="130" as="targetPoint" />
          </mxGeometry>
        </mxCell>
        <mxCell id="UWtLDS1Xiag3bLHQ2QYY-91" value="" style="endArrow=classic;html=1;rounded=0;fillColor=#e51400;strokeColor=#B20000;strokeWidth=1;" parent="1" edge="1">
          <mxGeometry width="50" height="50" relative="1" as="geometry">
            <mxPoint x="399.65999999999997" y="161" as="sourcePoint" />
            <mxPoint x="399.65999999999997" y="131" as="targetPoint" />
          </mxGeometry>
        </mxCell>
        <mxCell id="UWtLDS1Xiag3bLHQ2QYY-92" value="" style="endArrow=classic;html=1;rounded=0;fillColor=#e51400;strokeColor=#B20000;strokeWidth=1;" parent="1" edge="1">
          <mxGeometry width="50" height="50" relative="1" as="geometry">
            <mxPoint x="559.66" y="160" as="sourcePoint" />
            <mxPoint x="559.66" y="130" as="targetPoint" />
          </mxGeometry>
        </mxCell>
        <mxCell id="UWtLDS1Xiag3bLHQ2QYY-93" value="" style="endArrow=classic;html=1;rounded=0;fillColor=#e51400;strokeColor=#B20000;strokeWidth=1;" parent="1" edge="1">
          <mxGeometry width="50" height="50" relative="1" as="geometry">
            <mxPoint x="719.31" y="161" as="sourcePoint" />
            <mxPoint x="719.31" y="131" as="targetPoint" />
          </mxGeometry>
        </mxCell>
        <mxCell id="UWtLDS1Xiag3bLHQ2QYY-95" value="Task 2" style="text;html=1;strokeColor=none;fillColor=none;align=center;verticalAlign=middle;whiteSpace=wrap;rounded=0;" parent="1" vertex="1">
          <mxGeometry x="20" y="161" width="60" height="30" as="geometry" />
        </mxCell>
        <mxCell id="UWtLDS1Xiag3bLHQ2QYY-99" value="" style="endArrow=classic;html=1;rounded=0;fillColor=#e51400;strokeColor=#B20000;strokeWidth=1;" parent="1" edge="1">
          <mxGeometry width="50" height="50" relative="1" as="geometry">
            <mxPoint x="79.70999999999995" y="196" as="sourcePoint" />
            <mxPoint x="79.70999999999995" y="166" as="targetPoint" />
          </mxGeometry>
        </mxCell>
        <mxCell id="UWtLDS1Xiag3bLHQ2QYY-100" value="" style="endArrow=classic;html=1;rounded=0;fillColor=#e51400;strokeColor=#B20000;strokeWidth=1;" parent="1" edge="1">
          <mxGeometry width="50" height="50" relative="1" as="geometry">
            <mxPoint x="279.99999999999994" y="201" as="sourcePoint" />
            <mxPoint x="279.99999999999994" y="171" as="targetPoint" />
          </mxGeometry>
        </mxCell>
        <mxCell id="UWtLDS1Xiag3bLHQ2QYY-101" value="" style="endArrow=classic;html=1;rounded=0;fillColor=#e51400;strokeColor=#B20000;strokeWidth=1;" parent="1" edge="1">
          <mxGeometry width="50" height="50" relative="1" as="geometry">
            <mxPoint x="479.42999999999995" y="202" as="sourcePoint" />
            <mxPoint x="479.42999999999995" y="172" as="targetPoint" />
          </mxGeometry>
        </mxCell>
        <mxCell id="UWtLDS1Xiag3bLHQ2QYY-102" value="" style="endArrow=classic;html=1;rounded=0;fillColor=#e51400;strokeColor=#B20000;strokeWidth=1;" parent="1" edge="1">
          <mxGeometry width="50" height="50" relative="1" as="geometry">
            <mxPoint x="679.7099999999999" y="201" as="sourcePoint" />
            <mxPoint x="679.7099999999999" y="171" as="targetPoint" />
          </mxGeometry>
        </mxCell>
        <mxCell id="UWtLDS1Xiag3bLHQ2QYY-182" value="" style="rounded=0;whiteSpace=wrap;html=1;fillColor=#30DAE6;strokeColor=#996185;gradientColor=#24D55F;" parent="1" vertex="1">
          <mxGeometry x="985.5" y="392" width="40" height="40" as="geometry" />
        </mxCell>
        <mxCell id="UWtLDS1Xiag3bLHQ2QYY-183" value="" style="rounded=0;whiteSpace=wrap;html=1;fillColor=#e6d0de;gradientColor=#d5739d;strokeColor=#996185;" parent="1" vertex="1">
          <mxGeometry x="945.5" y="352" width="40" height="40" as="geometry" />
        </mxCell>
        <mxCell id="UWtLDS1Xiag3bLHQ2QYY-184" value="" style="rounded=0;whiteSpace=wrap;html=1;fillColor=#e6d0de;gradientColor=#d5739d;strokeColor=#996185;" parent="1" vertex="1">
          <mxGeometry x="865.5" y="351" width="40" height="40" as="geometry" />
        </mxCell>
        <mxCell id="UWtLDS1Xiag3bLHQ2QYY-187" value="" style="rounded=0;whiteSpace=wrap;html=1;fillColor=#e6d0de;gradientColor=#d5739d;strokeColor=#996185;" parent="1" vertex="1">
          <mxGeometry x="705.5" y="351" width="40" height="40" as="geometry" />
        </mxCell>
        <mxCell id="UWtLDS1Xiag3bLHQ2QYY-188" value="" style="rounded=0;whiteSpace=wrap;html=1;fillColor=#e6d0de;gradientColor=#d5739d;strokeColor=#996185;" parent="1" vertex="1">
          <mxGeometry x="625.5" y="351" width="40" height="40" as="geometry" />
        </mxCell>
        <mxCell id="UWtLDS1Xiag3bLHQ2QYY-189" value="" style="rounded=0;whiteSpace=wrap;html=1;fillColor=#e6d0de;gradientColor=#d5739d;strokeColor=#996185;" parent="1" vertex="1">
          <mxGeometry x="426.5" y="352" width="40" height="40" as="geometry" />
        </mxCell>
        <mxCell id="UWtLDS1Xiag3bLHQ2QYY-191" value="" style="endArrow=none;html=1;rounded=0;" parent="1" edge="1">
          <mxGeometry width="50" height="50" relative="1" as="geometry">
            <mxPoint x="385.5" y="440" as="sourcePoint" />
            <mxPoint x="1085.5" y="440" as="targetPoint" />
          </mxGeometry>
        </mxCell>
        <mxCell id="UWtLDS1Xiag3bLHQ2QYY-192" value="" style="endArrow=none;html=1;rounded=0;exitX=0.5;exitY=0;exitDx=0;exitDy=0;" parent="1" source="UWtLDS1Xiag3bLHQ2QYY-214" edge="1">
          <mxGeometry width="50" height="50" relative="1" as="geometry">
            <mxPoint x="385.5" y="551" as="sourcePoint" />
            <mxPoint x="385.5" y="311" as="targetPoint" />
          </mxGeometry>
        </mxCell>
        <mxCell id="UWtLDS1Xiag3bLHQ2QYY-193" value="" style="endArrow=classic;html=1;rounded=0;fillColor=#e51400;strokeColor=#B20000;" parent="1" edge="1">
          <mxGeometry width="50" height="50" relative="1" as="geometry">
            <mxPoint x="385.5" y="391" as="sourcePoint" />
            <mxPoint x="385.5" y="361" as="targetPoint" />
          </mxGeometry>
        </mxCell>
        <mxCell id="UWtLDS1Xiag3bLHQ2QYY-194" value="" style="endArrow=classic;html=1;rounded=0;fillColor=#e51400;strokeColor=#B20000;" parent="1" edge="1">
          <mxGeometry width="50" height="50" relative="1" as="geometry">
            <mxPoint x="385.5" y="351" as="sourcePoint" />
            <mxPoint x="385.5" y="321" as="targetPoint" />
          </mxGeometry>
        </mxCell>
        <mxCell id="UWtLDS1Xiag3bLHQ2QYY-195" value="Task 3" style="text;html=1;strokeColor=none;fillColor=none;align=center;verticalAlign=middle;whiteSpace=wrap;rounded=0;" parent="1" vertex="1">
          <mxGeometry x="325.5" y="321" width="60" height="30" as="geometry" />
        </mxCell>
        <mxCell id="UWtLDS1Xiag3bLHQ2QYY-196" value="Task IB" style="text;html=1;strokeColor=none;fillColor=none;align=center;verticalAlign=middle;whiteSpace=wrap;rounded=0;" parent="1" vertex="1">
          <mxGeometry x="325.5" y="357" width="60" height="30" as="geometry" />
        </mxCell>
        <mxCell id="UWtLDS1Xiag3bLHQ2QYY-197" value="" style="endArrow=none;html=1;rounded=0;" parent="1" edge="1">
          <mxGeometry width="50" height="50" relative="1" as="geometry">
            <mxPoint x="585.5" y="460" as="sourcePoint" />
            <mxPoint x="585.5" y="440" as="targetPoint" />
          </mxGeometry>
        </mxCell>
        <mxCell id="UWtLDS1Xiag3bLHQ2QYY-198" value="" style="endArrow=none;html=1;rounded=0;" parent="1" edge="1">
          <mxGeometry width="50" height="50" relative="1" as="geometry">
            <mxPoint x="785.5" y="460" as="sourcePoint" />
            <mxPoint x="785.5" y="440" as="targetPoint" />
          </mxGeometry>
        </mxCell>
        <mxCell id="UWtLDS1Xiag3bLHQ2QYY-199" value="" style="endArrow=none;html=1;rounded=0;" parent="1" edge="1">
          <mxGeometry width="50" height="50" relative="1" as="geometry">
            <mxPoint x="985.5" y="460" as="sourcePoint" />
            <mxPoint x="985.5" y="440" as="targetPoint" />
          </mxGeometry>
        </mxCell>
        <mxCell id="UWtLDS1Xiag3bLHQ2QYY-200" value="" style="endArrow=none;html=1;rounded=0;" parent="1" edge="1">
          <mxGeometry width="50" height="50" relative="1" as="geometry">
            <mxPoint x="425.5" y="450" as="sourcePoint" />
            <mxPoint x="425.17" y="440" as="targetPoint" />
          </mxGeometry>
        </mxCell>
        <mxCell id="UWtLDS1Xiag3bLHQ2QYY-201" value="" style="endArrow=none;html=1;rounded=0;" parent="1" edge="1">
          <mxGeometry width="50" height="50" relative="1" as="geometry">
            <mxPoint x="465.5" y="450" as="sourcePoint" />
            <mxPoint x="465.5" y="440" as="targetPoint" />
          </mxGeometry>
        </mxCell>
        <mxCell id="UWtLDS1Xiag3bLHQ2QYY-202" value="" style="endArrow=none;html=1;rounded=0;" parent="1" edge="1">
          <mxGeometry width="50" height="50" relative="1" as="geometry">
            <mxPoint x="505.5" y="450" as="sourcePoint" />
            <mxPoint x="505.5" y="440" as="targetPoint" />
          </mxGeometry>
        </mxCell>
        <mxCell id="UWtLDS1Xiag3bLHQ2QYY-203" value="" style="endArrow=none;html=1;rounded=0;" parent="1" edge="1">
          <mxGeometry width="50" height="50" relative="1" as="geometry">
            <mxPoint x="545.5" y="450" as="sourcePoint" />
            <mxPoint x="545.5" y="440" as="targetPoint" />
          </mxGeometry>
        </mxCell>
        <mxCell id="UWtLDS1Xiag3bLHQ2QYY-204" value="" style="endArrow=none;html=1;rounded=0;" parent="1" edge="1">
          <mxGeometry width="50" height="50" relative="1" as="geometry">
            <mxPoint x="625.5" y="450" as="sourcePoint" />
            <mxPoint x="625.5" y="440" as="targetPoint" />
          </mxGeometry>
        </mxCell>
        <mxCell id="UWtLDS1Xiag3bLHQ2QYY-205" value="" style="endArrow=none;html=1;rounded=0;" parent="1" edge="1">
          <mxGeometry width="50" height="50" relative="1" as="geometry">
            <mxPoint x="665.5" y="450" as="sourcePoint" />
            <mxPoint x="665.5" y="440" as="targetPoint" />
          </mxGeometry>
        </mxCell>
        <mxCell id="UWtLDS1Xiag3bLHQ2QYY-206" value="" style="endArrow=none;html=1;rounded=0;" parent="1" edge="1">
          <mxGeometry width="50" height="50" relative="1" as="geometry">
            <mxPoint x="705.5" y="450" as="sourcePoint" />
            <mxPoint x="705.5" y="440" as="targetPoint" />
          </mxGeometry>
        </mxCell>
        <mxCell id="UWtLDS1Xiag3bLHQ2QYY-207" value="" style="endArrow=none;html=1;rounded=0;" parent="1" edge="1">
          <mxGeometry width="50" height="50" relative="1" as="geometry">
            <mxPoint x="745.5" y="450" as="sourcePoint" />
            <mxPoint x="745.5" y="440" as="targetPoint" />
          </mxGeometry>
        </mxCell>
        <mxCell id="UWtLDS1Xiag3bLHQ2QYY-208" value="" style="endArrow=none;html=1;rounded=0;" parent="1" edge="1">
          <mxGeometry width="50" height="50" relative="1" as="geometry">
            <mxPoint x="825.5" y="450" as="sourcePoint" />
            <mxPoint x="825.5" y="440" as="targetPoint" />
          </mxGeometry>
        </mxCell>
        <mxCell id="UWtLDS1Xiag3bLHQ2QYY-209" value="" style="endArrow=none;html=1;rounded=0;" parent="1" edge="1">
          <mxGeometry width="50" height="50" relative="1" as="geometry">
            <mxPoint x="865.5" y="450" as="sourcePoint" />
            <mxPoint x="865.5" y="440" as="targetPoint" />
          </mxGeometry>
        </mxCell>
        <mxCell id="UWtLDS1Xiag3bLHQ2QYY-210" value="" style="endArrow=none;html=1;rounded=0;" parent="1" edge="1">
          <mxGeometry width="50" height="50" relative="1" as="geometry">
            <mxPoint x="905.5" y="450" as="sourcePoint" />
            <mxPoint x="905.5" y="440" as="targetPoint" />
          </mxGeometry>
        </mxCell>
        <mxCell id="UWtLDS1Xiag3bLHQ2QYY-211" value="" style="endArrow=none;html=1;rounded=0;" parent="1" edge="1">
          <mxGeometry width="50" height="50" relative="1" as="geometry">
            <mxPoint x="945.5" y="450" as="sourcePoint" />
            <mxPoint x="945.5" y="440" as="targetPoint" />
          </mxGeometry>
        </mxCell>
        <mxCell id="UWtLDS1Xiag3bLHQ2QYY-212" value="" style="endArrow=none;html=1;rounded=0;" parent="1" edge="1">
          <mxGeometry width="50" height="50" relative="1" as="geometry">
            <mxPoint x="1025.5" y="450" as="sourcePoint" />
            <mxPoint x="1025.5" y="440" as="targetPoint" />
          </mxGeometry>
        </mxCell>
        <mxCell id="UWtLDS1Xiag3bLHQ2QYY-213" value="" style="endArrow=none;html=1;rounded=0;" parent="1" edge="1">
          <mxGeometry width="50" height="50" relative="1" as="geometry">
            <mxPoint x="1065.5" y="450" as="sourcePoint" />
            <mxPoint x="1065.5" y="440" as="targetPoint" />
          </mxGeometry>
        </mxCell>
        <mxCell id="UWtLDS1Xiag3bLHQ2QYY-214" value="&lt;font style=&quot;font-size: 8px;&quot;&gt;t = 0&lt;/font&gt;" style="text;html=1;strokeColor=none;fillColor=none;align=center;verticalAlign=middle;whiteSpace=wrap;rounded=0;" parent="1" vertex="1">
          <mxGeometry x="365.5" y="460" width="40" height="20" as="geometry" />
        </mxCell>
        <mxCell id="UWtLDS1Xiag3bLHQ2QYY-215" value="&lt;font style=&quot;font-size: 8px;&quot;&gt;1&lt;/font&gt;" style="text;html=1;strokeColor=none;fillColor=none;align=center;verticalAlign=middle;whiteSpace=wrap;rounded=0;" parent="1" vertex="1">
          <mxGeometry x="415.5" y="460" width="20" height="20" as="geometry" />
        </mxCell>
        <mxCell id="UWtLDS1Xiag3bLHQ2QYY-216" value="&lt;font style=&quot;font-size: 8px;&quot;&gt;2&lt;/font&gt;" style="text;html=1;strokeColor=none;fillColor=none;align=center;verticalAlign=middle;whiteSpace=wrap;rounded=0;" parent="1" vertex="1">
          <mxGeometry x="455.5" y="460" width="20" height="20" as="geometry" />
        </mxCell>
        <mxCell id="UWtLDS1Xiag3bLHQ2QYY-217" value="&lt;font style=&quot;font-size: 8px;&quot;&gt;3&lt;/font&gt;" style="text;html=1;strokeColor=none;fillColor=none;align=center;verticalAlign=middle;whiteSpace=wrap;rounded=0;" parent="1" vertex="1">
          <mxGeometry x="495.5" y="460" width="20" height="20" as="geometry" />
        </mxCell>
        <mxCell id="UWtLDS1Xiag3bLHQ2QYY-218" value="&lt;font style=&quot;font-size: 8px;&quot;&gt;4&lt;/font&gt;" style="text;html=1;strokeColor=none;fillColor=none;align=center;verticalAlign=middle;whiteSpace=wrap;rounded=0;" parent="1" vertex="1">
          <mxGeometry x="535.5" y="460" width="20" height="20" as="geometry" />
        </mxCell>
        <mxCell id="UWtLDS1Xiag3bLHQ2QYY-219" value="&lt;font style=&quot;font-size: 8px;&quot;&gt;5&lt;/font&gt;" style="text;html=1;strokeColor=none;fillColor=none;align=center;verticalAlign=middle;whiteSpace=wrap;rounded=0;" parent="1" vertex="1">
          <mxGeometry x="575.5" y="460" width="20" height="20" as="geometry" />
        </mxCell>
        <mxCell id="UWtLDS1Xiag3bLHQ2QYY-220" value="&lt;span style=&quot;font-size: 8px;&quot;&gt;6&lt;/span&gt;" style="text;html=1;strokeColor=none;fillColor=none;align=center;verticalAlign=middle;whiteSpace=wrap;rounded=0;" parent="1" vertex="1">
          <mxGeometry x="615.5" y="460" width="20" height="20" as="geometry" />
        </mxCell>
        <mxCell id="UWtLDS1Xiag3bLHQ2QYY-221" value="&lt;span style=&quot;font-size: 8px;&quot;&gt;7&lt;/span&gt;" style="text;html=1;strokeColor=none;fillColor=none;align=center;verticalAlign=middle;whiteSpace=wrap;rounded=0;" parent="1" vertex="1">
          <mxGeometry x="655.5" y="460" width="20" height="20" as="geometry" />
        </mxCell>
        <mxCell id="UWtLDS1Xiag3bLHQ2QYY-222" value="&lt;font style=&quot;font-size: 8px;&quot;&gt;8&lt;/font&gt;" style="text;html=1;strokeColor=none;fillColor=none;align=center;verticalAlign=middle;whiteSpace=wrap;rounded=0;" parent="1" vertex="1">
          <mxGeometry x="695.5" y="460" width="20" height="20" as="geometry" />
        </mxCell>
        <mxCell id="UWtLDS1Xiag3bLHQ2QYY-223" value="&lt;font style=&quot;font-size: 8px;&quot;&gt;9&lt;/font&gt;" style="text;html=1;strokeColor=none;fillColor=none;align=center;verticalAlign=middle;whiteSpace=wrap;rounded=0;" parent="1" vertex="1">
          <mxGeometry x="735.5" y="460" width="20" height="20" as="geometry" />
        </mxCell>
        <mxCell id="UWtLDS1Xiag3bLHQ2QYY-224" value="&lt;font style=&quot;font-size: 8px;&quot;&gt;10&lt;/font&gt;" style="text;html=1;strokeColor=none;fillColor=none;align=center;verticalAlign=middle;whiteSpace=wrap;rounded=0;" parent="1" vertex="1">
          <mxGeometry x="775.5" y="460" width="20" height="20" as="geometry" />
        </mxCell>
        <mxCell id="UWtLDS1Xiag3bLHQ2QYY-225" value="&lt;font style=&quot;font-size: 8px;&quot;&gt;11&lt;/font&gt;" style="text;html=1;strokeColor=none;fillColor=none;align=center;verticalAlign=middle;whiteSpace=wrap;rounded=0;" parent="1" vertex="1">
          <mxGeometry x="815.5" y="460" width="20" height="20" as="geometry" />
        </mxCell>
        <mxCell id="UWtLDS1Xiag3bLHQ2QYY-226" value="&lt;font style=&quot;font-size: 8px;&quot;&gt;12&lt;/font&gt;" style="text;html=1;strokeColor=none;fillColor=none;align=center;verticalAlign=middle;whiteSpace=wrap;rounded=0;" parent="1" vertex="1">
          <mxGeometry x="855.5" y="460" width="20" height="20" as="geometry" />
        </mxCell>
        <mxCell id="UWtLDS1Xiag3bLHQ2QYY-227" value="&lt;font style=&quot;font-size: 8px;&quot;&gt;13&lt;/font&gt;" style="text;html=1;strokeColor=none;fillColor=none;align=center;verticalAlign=middle;whiteSpace=wrap;rounded=0;" parent="1" vertex="1">
          <mxGeometry x="895.5" y="460" width="20" height="20" as="geometry" />
        </mxCell>
        <mxCell id="UWtLDS1Xiag3bLHQ2QYY-228" value="&lt;font style=&quot;font-size: 8px;&quot;&gt;14&lt;/font&gt;" style="text;html=1;strokeColor=none;fillColor=none;align=center;verticalAlign=middle;whiteSpace=wrap;rounded=0;" parent="1" vertex="1">
          <mxGeometry x="935.5" y="460" width="20" height="20" as="geometry" />
        </mxCell>
        <mxCell id="UWtLDS1Xiag3bLHQ2QYY-229" value="&lt;font style=&quot;font-size: 8px;&quot;&gt;15&lt;/font&gt;" style="text;html=1;strokeColor=none;fillColor=none;align=center;verticalAlign=middle;whiteSpace=wrap;rounded=0;" parent="1" vertex="1">
          <mxGeometry x="975.5" y="460" width="20" height="20" as="geometry" />
        </mxCell>
        <mxCell id="UWtLDS1Xiag3bLHQ2QYY-230" value="&lt;font style=&quot;font-size: 8px;&quot;&gt;16&lt;/font&gt;" style="text;html=1;strokeColor=none;fillColor=none;align=center;verticalAlign=middle;whiteSpace=wrap;rounded=0;" parent="1" vertex="1">
          <mxGeometry x="1015.5" y="460" width="20" height="20" as="geometry" />
        </mxCell>
        <mxCell id="UWtLDS1Xiag3bLHQ2QYY-231" value="&lt;font style=&quot;font-size: 8px;&quot;&gt;17&lt;/font&gt;" style="text;html=1;strokeColor=none;fillColor=none;align=center;verticalAlign=middle;whiteSpace=wrap;rounded=0;" parent="1" vertex="1">
          <mxGeometry x="1055.5" y="460" width="20" height="20" as="geometry" />
        </mxCell>
        <mxCell id="UWtLDS1Xiag3bLHQ2QYY-236" value="" style="rounded=0;whiteSpace=wrap;html=1;fillColor=#e6d0de;gradientColor=#d5739d;strokeColor=#996185;" parent="1" vertex="1">
          <mxGeometry x="466.5" y="352" width="40" height="40" as="geometry" />
        </mxCell>
        <mxCell id="UWtLDS1Xiag3bLHQ2QYY-237" value="" style="endArrow=classic;html=1;rounded=0;fillColor=#e51400;strokeColor=#B20000;strokeWidth=1;" parent="1" edge="1">
          <mxGeometry width="50" height="50" relative="1" as="geometry">
            <mxPoint x="465.15999999999997" y="391" as="sourcePoint" />
            <mxPoint x="465.4" y="361" as="targetPoint" />
          </mxGeometry>
        </mxCell>
        <mxCell id="UWtLDS1Xiag3bLHQ2QYY-238" value="" style="rounded=0;whiteSpace=wrap;html=1;fillColor=#e6d0de;gradientColor=#d5739d;strokeColor=#996185;" parent="1" vertex="1">
          <mxGeometry x="545.5" y="351" width="40" height="40" as="geometry" />
        </mxCell>
        <mxCell id="UWtLDS1Xiag3bLHQ2QYY-239" value="" style="rounded=0;whiteSpace=wrap;html=1;fillColor=#e6d0de;gradientColor=#d5739d;strokeColor=#996185;" parent="1" vertex="1">
          <mxGeometry x="825.5" y="351" width="40" height="40" as="geometry" />
        </mxCell>
        <mxCell id="UWtLDS1Xiag3bLHQ2QYY-240" value="" style="rounded=0;whiteSpace=wrap;html=1;fillColor=#F8B572;gradientColor=#F70202;strokeColor=#b85450;" parent="1" vertex="1">
          <mxGeometry x="785.5" y="311" width="40" height="40" as="geometry" />
        </mxCell>
        <mxCell id="UWtLDS1Xiag3bLHQ2QYY-241" value="" style="endArrow=classic;html=1;rounded=0;fillColor=#e51400;strokeColor=#B20000;strokeWidth=1;" parent="1" edge="1">
          <mxGeometry width="50" height="50" relative="1" as="geometry">
            <mxPoint x="785.5" y="352" as="sourcePoint" />
            <mxPoint x="785.5" y="322" as="targetPoint" />
          </mxGeometry>
        </mxCell>
        <mxCell id="UWtLDS1Xiag3bLHQ2QYY-242" value="" style="endArrow=classic;html=1;rounded=0;fillColor=#e51400;strokeColor=#B20000;strokeWidth=1;" parent="1" edge="1">
          <mxGeometry width="50" height="50" relative="1" as="geometry">
            <mxPoint x="784.81" y="391" as="sourcePoint" />
            <mxPoint x="784.81" y="361" as="targetPoint" />
          </mxGeometry>
        </mxCell>
        <mxCell id="UWtLDS1Xiag3bLHQ2QYY-243" value="" style="endArrow=classic;html=1;rounded=0;fillColor=#e51400;strokeColor=#B20000;strokeWidth=1;" parent="1" edge="1">
          <mxGeometry width="50" height="50" relative="1" as="geometry">
            <mxPoint x="945.16" y="391" as="sourcePoint" />
            <mxPoint x="945.16" y="361" as="targetPoint" />
          </mxGeometry>
        </mxCell>
        <mxCell id="UWtLDS1Xiag3bLHQ2QYY-246" value="" style="endArrow=classic;html=1;rounded=0;fillColor=#e51400;strokeColor=#B20000;strokeWidth=1;" parent="1" edge="1">
          <mxGeometry width="50" height="50" relative="1" as="geometry">
            <mxPoint x="545.5" y="392" as="sourcePoint" />
            <mxPoint x="545.5" y="362" as="targetPoint" />
          </mxGeometry>
        </mxCell>
        <mxCell id="UWtLDS1Xiag3bLHQ2QYY-247" value="" style="endArrow=classic;html=1;rounded=0;fillColor=#e51400;strokeColor=#B20000;strokeWidth=1;" parent="1" edge="1">
          <mxGeometry width="50" height="50" relative="1" as="geometry">
            <mxPoint x="625.16" y="391" as="sourcePoint" />
            <mxPoint x="625.16" y="361" as="targetPoint" />
          </mxGeometry>
        </mxCell>
        <mxCell id="UWtLDS1Xiag3bLHQ2QYY-248" value="" style="endArrow=classic;html=1;rounded=0;fillColor=#e51400;strokeColor=#B20000;strokeWidth=1;" parent="1" edge="1">
          <mxGeometry width="50" height="50" relative="1" as="geometry">
            <mxPoint x="705.16" y="392" as="sourcePoint" />
            <mxPoint x="705.16" y="362" as="targetPoint" />
          </mxGeometry>
        </mxCell>
        <mxCell id="UWtLDS1Xiag3bLHQ2QYY-249" value="" style="endArrow=classic;html=1;rounded=0;fillColor=#e51400;strokeColor=#B20000;strokeWidth=1;" parent="1" edge="1">
          <mxGeometry width="50" height="50" relative="1" as="geometry">
            <mxPoint x="865.16" y="391" as="sourcePoint" />
            <mxPoint x="865.16" y="361" as="targetPoint" />
          </mxGeometry>
        </mxCell>
        <mxCell id="UWtLDS1Xiag3bLHQ2QYY-250" value="" style="endArrow=classic;html=1;rounded=0;fillColor=#e51400;strokeColor=#B20000;strokeWidth=1;" parent="1" edge="1">
          <mxGeometry width="50" height="50" relative="1" as="geometry">
            <mxPoint x="1024.81" y="392" as="sourcePoint" />
            <mxPoint x="1024.81" y="362" as="targetPoint" />
          </mxGeometry>
        </mxCell>
        <mxCell id="UWtLDS1Xiag3bLHQ2QYY-251" value="Task 4" style="text;html=1;strokeColor=none;fillColor=none;align=center;verticalAlign=middle;whiteSpace=wrap;rounded=0;" parent="1" vertex="1">
          <mxGeometry x="325.5" y="392" width="60" height="30" as="geometry" />
        </mxCell>
        <mxCell id="UWtLDS1Xiag3bLHQ2QYY-252" value="" style="endArrow=classic;html=1;rounded=0;fillColor=#e51400;strokeColor=#B20000;strokeWidth=1;" parent="1" edge="1">
          <mxGeometry width="50" height="50" relative="1" as="geometry">
            <mxPoint x="385.2099999999999" y="427" as="sourcePoint" />
            <mxPoint x="385.2099999999999" y="397" as="targetPoint" />
          </mxGeometry>
        </mxCell>
        <mxCell id="UWtLDS1Xiag3bLHQ2QYY-253" value="" style="endArrow=classic;html=1;rounded=0;fillColor=#e51400;strokeColor=#B20000;strokeWidth=1;" parent="1" edge="1">
          <mxGeometry width="50" height="50" relative="1" as="geometry">
            <mxPoint x="585.5" y="432" as="sourcePoint" />
            <mxPoint x="585.5" y="402" as="targetPoint" />
          </mxGeometry>
        </mxCell>
        <mxCell id="UWtLDS1Xiag3bLHQ2QYY-254" value="" style="endArrow=classic;html=1;rounded=0;fillColor=#e51400;strokeColor=#B20000;strokeWidth=1;" parent="1" edge="1">
          <mxGeometry width="50" height="50" relative="1" as="geometry">
            <mxPoint x="784.93" y="433" as="sourcePoint" />
            <mxPoint x="784.93" y="403" as="targetPoint" />
          </mxGeometry>
        </mxCell>
        <mxCell id="UWtLDS1Xiag3bLHQ2QYY-255" value="" style="endArrow=classic;html=1;rounded=0;fillColor=#e51400;strokeColor=#B20000;strokeWidth=1;" parent="1" edge="1">
          <mxGeometry width="50" height="50" relative="1" as="geometry">
            <mxPoint x="985.2099999999999" y="432" as="sourcePoint" />
            <mxPoint x="985.2099999999999" y="402" as="targetPoint" />
          </mxGeometry>
        </mxCell>
        <mxCell id="UWtLDS1Xiag3bLHQ2QYY-265" value="" style="curved=1;endArrow=classic;html=1;rounded=0;strokeWidth=2;exitX=-0.163;exitY=-0.216;exitDx=0;exitDy=0;exitPerimeter=0;" parent="1" edge="1">
          <mxGeometry width="50" height="50" relative="1" as="geometry">
            <mxPoint x="384.5" y="280.5" as="sourcePoint" />
            <mxPoint x="950" y="450" as="targetPoint" />
            <Array as="points">
              <mxPoint x="387.5" y="324.5" />
              <mxPoint x="418.5" y="344.5" />
              <mxPoint x="578.5" y="344.5" />
              <mxPoint x="730" y="350" />
              <mxPoint x="850" y="360" />
              <mxPoint x="938" y="400" />
            </Array>
          </mxGeometry>
        </mxCell>
        <mxCell id="UWtLDS1Xiag3bLHQ2QYY-266" value="" style="curved=1;endArrow=classic;html=1;rounded=0;strokeWidth=2;" parent="1" edge="1">
          <mxGeometry width="50" height="50" relative="1" as="geometry">
            <mxPoint x="80" y="60" as="sourcePoint" />
            <mxPoint x="300" y="260" as="targetPoint" />
            <Array as="points">
              <mxPoint x="90" y="100" />
              <mxPoint x="110" y="120" />
              <mxPoint x="220" y="160" />
              <mxPoint x="240" y="210" />
              <mxPoint x="300" y="230" />
            </Array>
          </mxGeometry>
        </mxCell>
        <mxCell id="UWtLDS1Xiag3bLHQ2QYY-268" value="" style="verticalLabelPosition=bottom;verticalAlign=top;html=1;shape=mxgraph.basic.flash;strokeColor=#000000;fillColor=#FF0000;rotation=30;" parent="1" vertex="1">
          <mxGeometry x="409.5" y="281" width="13.75" height="30" as="geometry" />
        </mxCell>
        <mxCell id="UWtLDS1Xiag3bLHQ2QYY-269" value="Task 3 just misses Msg1" style="text;html=1;strokeColor=default;fillColor=none;align=center;verticalAlign=middle;whiteSpace=wrap;rounded=0;" parent="1" vertex="1">
          <mxGeometry x="432.5" y="290" width="97" height="37" as="geometry" />
        </mxCell>
        <mxCell id="vqSvyrBY0vp0kN4hvr6z-1" value="" style="rounded=0;whiteSpace=wrap;html=1;fillColor=#647687;strokeColor=#314354;fontColor=#ffffff;" vertex="1" parent="1">
          <mxGeometry x="320" y="201" width="65" height="40" as="geometry" />
        </mxCell>
        <mxCell id="vqSvyrBY0vp0kN4hvr6z-2" value="" style="rounded=0;whiteSpace=wrap;html=1;fillColor=#647687;strokeColor=#314354;fontColor=#ffffff;" vertex="1" parent="1">
          <mxGeometry x="721" y="201" width="65" height="40" as="geometry" />
        </mxCell>
        <mxCell id="vqSvyrBY0vp0kN4hvr6z-5" value="" style="curved=1;endArrow=classic;html=1;rounded=0;strokeWidth=2;" edge="1" parent="1">
          <mxGeometry width="50" height="50" relative="1" as="geometry">
            <mxPoint x="81" y="60" as="sourcePoint" />
            <mxPoint x="390" y="260" as="targetPoint" />
            <Array as="points">
              <mxPoint x="91" y="100" />
              <mxPoint x="111" y="120" />
              <mxPoint x="221" y="160" />
              <mxPoint x="300" y="170" />
              <mxPoint x="330" y="220" />
              <mxPoint x="380" y="210" />
            </Array>
          </mxGeometry>
        </mxCell>
        <mxCell id="vqSvyrBY0vp0kN4hvr6z-6" value="" style="curved=1;endArrow=classic;html=1;rounded=0;strokeWidth=2;entryX=0.734;entryY=-0.216;entryDx=0;entryDy=0;entryPerimeter=0;" edge="1" parent="1" target="UWtLDS1Xiag3bLHQ2QYY-230">
          <mxGeometry width="50" height="50" relative="1" as="geometry">
            <mxPoint x="380" y="290" as="sourcePoint" />
            <mxPoint x="962.5" y="473.5" as="targetPoint" />
            <Array as="points">
              <mxPoint x="397.5" y="334.5" />
              <mxPoint x="420" y="340" />
              <mxPoint x="590" y="350" />
              <mxPoint x="738.5" y="344.5" />
              <mxPoint x="990" y="380" />
              <mxPoint x="1030" y="420" />
            </Array>
          </mxGeometry>
        </mxCell>
      </root>
    </mxGraphModel>
  </diagram>
</mxfile>
